<svg width="16" height="16" viewBox="0 0 16 16" fill="none" xmlns="http://www.w3.org/2000/svg">
<path d="M13 8.5C13 8.36739 13.0527 8.24021 13.1464 8.14645C13.2402 8.05268 13.3674 8 13.5 8C13.6326 8 13.7598 8.05268 13.8536 8.14645C13.9473 8.24021 14 8.36739 14 8.5V12C14 12.5304 13.7893 13.0391 13.4142 13.4142C13.0391 13.7893 12.5304 14 12 14H4C3.46957 14 2.96086 13.7893 2.58579 13.4142C2.21071 13.0391 2 12.5304 2 12V4C2 3.46957 2.21071 2.96086 2.58579 2.58579C2.96086 2.21071 3.46957 2 4 2H7.5C7.63261 2 7.75979 2.05268 7.85355 2.14645C7.94732 2.24021 8 2.36739 8 2.5C8 2.63261 7.94732 2.75979 7.85355 2.85355C7.75979 2.94732 7.63261 3 7.5 3H4C3.73478 3 3.48043 3.10536 3.29289 3.29289C3.10536 3.48043 3 3.73478 3 4V12C3 12.2652 3.10536 12.5196 3.29289 12.7071C3.48043 12.8946 3.73478 13 4 13H12C12.2652 13 12.5196 12.8946 12.7071 12.7071C12.8946 12.5196 13 12.2652 13 12V8.5ZM7.88 8.839C7.83432 8.88856 7.77909 8.92838 7.71762 8.95605C7.65616 8.98372 7.58974 8.99868 7.52235 9.00003C7.45496 9.00138 7.38799 8.98909 7.32547 8.9639C7.26295 8.9387 7.20617 8.90113 7.15854 8.85343C7.11092 8.80574 7.07342 8.74891 7.04832 8.68635C7.02322 8.6238 7.01102 8.55681 7.01246 8.48942C7.01391 8.42203 7.02896 8.35563 7.05672 8.29421C7.08448 8.23279 7.12437 8.17761 7.174 8.132L13.305 2H10.5C10.3674 2 10.2402 1.94732 10.1464 1.85355C10.0527 1.75979 10 1.63261 10 1.5C10 1.36739 10.0527 1.24021 10.1464 1.14645C10.2402 1.05268 10.3674 1 10.5 1H14C14.2652 1 14.5196 1.10536 14.7071 1.29289C14.8946 1.48043 15 1.73478 15 2V5.5C15 5.63261 14.9473 5.75979 14.8536 5.85355C14.7598 5.94732 14.6326 6 14.5 6C14.3674 6 14.2402 5.94732 14.1464 5.85355C14.0527 5.75979 14 5.63261 14 5.5V2.72L7.88 8.839Z" fill="#F5F5F5"/>
</svg>
