<svg width="40" height="40" viewBox="0 0 40 40" fill="none" xmlns="http://www.w3.org/2000/svg">
<path d="M34.2857 18.5714H21.4286V5.71422C21.4286 5.33534 21.2781 4.97197 21.0101 4.70406C20.7422 4.43615 20.3789 4.28564 20 4.28564C19.6211 4.28564 19.2577 4.43615 18.9898 4.70406C18.7219 4.97197 18.5714 5.33534 18.5714 5.71422V18.5714H5.71428C5.3354 18.5714 4.97203 18.7219 4.70412 18.9898C4.43622 19.2577 4.28571 19.621 4.28571 19.9999C4.28571 20.3788 4.43622 20.7422 4.70412 21.0101C4.97203 21.278 5.3354 21.4285 5.71428 21.4285H18.5714V34.2856C18.5714 34.6645 18.7219 35.0279 18.9898 35.2958C19.2577 35.5637 19.6211 35.7142 20 35.7142C20.3789 35.7142 20.7422 35.5637 21.0101 35.2958C21.2781 35.0279 21.4286 34.6645 21.4286 34.2856V21.4285H34.2857C34.6646 21.4285 35.028 21.278 35.2959 21.0101C35.5638 20.7422 35.7143 20.3788 35.7143 19.9999C35.7143 19.621 35.5638 19.2577 35.2959 18.9898C35.028 18.7219 34.6646 18.5714 34.2857 18.5714Z" fill="#828282"/>
</svg>
