<svg width="16" height="16" viewBox="0 0 16 16" fill="none" xmlns="http://www.w3.org/2000/svg">
<path d="M0 16L0 15H1V16H0ZM0 1H1V2H0L0 1ZM0 14L0 12H1V14H0ZM1 9L1 11H0L0 9H1ZM1 6L1 8H0L0 6H1ZM0 5L0 3H1L1 5H0ZM15 16V15L16 15V16H15ZM15 2L15 1H16V2H15ZM15 14V12H16V14H15ZM15 11V9H16V11H15ZM15 8V6H16V8H15ZM15 5V3H16V5H15ZM4.71094 8H11.2891L9.64844 6.35156L10.3516 5.64844L13.2031 8.5L10.3516 11.3516L9.64844 10.6484L11.2891 9H4.71094L6.35156 10.6484L5.64844 11.3516L2.79688 8.5L5.64844 5.64844L6.35156 6.35156L4.71094 8Z" fill="#A2FF66"/>
</svg>
