<svg width="28" height="28" viewBox="0 0 28 28" fill="none" xmlns="http://www.w3.org/2000/svg">
<path d="M10.69 5.267C10.7676 5.45001 10.7694 5.65634 10.6949 5.84066C10.6205 6.02498 10.4759 6.17221 10.293 6.25C8.57493 6.97855 7.1094 8.19684 6.07921 9.75288C5.04902 11.3089 4.49978 13.1338 4.5 15C4.5 17.5196 5.50089 19.9359 7.28249 21.7175C9.06408 23.4991 11.4804 24.5 14 24.5C16.5196 24.5 18.9359 23.4991 20.7175 21.7175C22.4991 19.9359 23.5 17.5196 23.5 15C23.5002 13.1338 22.951 11.3089 21.9208 9.75288C20.8906 8.19684 19.4251 6.97855 17.707 6.25C17.5301 6.16827 17.392 6.02091 17.3219 5.83912C17.2517 5.65733 17.2551 5.45538 17.3313 5.27603C17.4074 5.09668 17.5504 4.95401 17.7299 4.87823C17.9094 4.80244 18.1114 4.79949 18.293 4.87C20.2822 5.71321 21.9791 7.12357 23.1719 8.92506C24.3646 10.7266 25.0005 12.8394 25 15C25 21.075 20.075 26 14 26C7.925 26 3 21.075 3 15C2.99955 12.8394 3.63537 10.7266 4.82813 8.92506C6.02089 7.12357 7.71776 5.71321 9.707 4.87C9.89001 4.79239 10.0963 4.79061 10.2807 4.86506C10.465 4.9395 10.6122 5.08407 10.69 5.267ZM14 2C14.1989 2 14.3897 2.07902 14.5303 2.21967C14.671 2.36032 14.75 2.55109 14.75 2.75V12.25C14.75 12.4489 14.671 12.6397 14.5303 12.7803C14.3897 12.921 14.1989 13 14 13C13.8011 13 13.6103 12.921 13.4697 12.7803C13.329 12.6397 13.25 12.4489 13.25 12.25V2.75C13.25 2.55109 13.329 2.36032 13.4697 2.21967C13.6103 2.07902 13.8011 2 14 2Z" fill="#F5F5F5"/>
</svg>
